<?xml version="1.0" encoding="utf-8" standalone="no"?>
<!DOCTYPE svg PUBLIC "-//W3C//DTD SVG 1.1//EN"
  "http://www.w3.org/Graphics/SVG/1.1/DTD/svg11.dtd">
<svg xmlns:xlink="http://www.w3.org/1999/xlink" width="404.788684pt" height="288.420272pt" viewBox="0 0 404.788684 288.420272" xmlns="http://www.w3.org/2000/svg" version="1.1">
 <metadata>
  <rdf:RDF xmlns:dc="http://purl.org/dc/elements/1.1/" xmlns:cc="http://creativecommons.org/ns#" xmlns:rdf="http://www.w3.org/1999/02/22-rdf-syntax-ns#">
   <cc:Work>
    <dc:type rdf:resource="http://purl.org/dc/dcmitype/StillImage"/>
    <dc:date>2026-06-23T11:43:51.429584</dc:date>
    <dc:format>image/svg+xml</dc:format>
    <dc:creator>
     <cc:Agent>
      <dc:title>Matplotlib v3.10.8, https://matplotlib.org/</dc:title>
     </cc:Agent>
    </dc:creator>
   </cc:Work>
  </rdf:RDF>
 </metadata>
 <defs>
  <style type="text/css">*{stroke-linejoin: round; stroke-linecap: butt}</style>
 </defs>
 <g id="figure_1">
  <g id="patch_1">
   <path d="M 0 288.420272 
L 404.788684 288.420272 
L 404.788684 0 
L 0 0 
z
" style="fill: #ffffff"/>
  </g>
  <g id="axes_1">
   <g id="patch_2">
    <path d="M 29.308684 262.272067 
L 397.588684 262.272067 
L 397.588684 7.248067 
L 29.308684 7.248067 
z
" style="fill: #ffffff"/>
   </g>
   <g id="FillBetweenPolyCollection_1">
    <defs>
     <path id="m1157ec75e9" d="M 198.911195 -153.660205 
L 198.911316 -153.660205 
L 196.775883 -155.265683 
L 194.64045 -156.871161 
L 192.505018 -158.476639 
L 190.369585 -160.082117 
L 188.234153 -161.687595 
L 186.09872 -163.293073 
L 183.963287 -164.898551 
L 181.827855 -166.504029 
L 179.692422 -168.109507 
L 177.556989 -169.714985 
L 175.421557 -171.320463 
L 173.286124 -172.925941 
L 171.150691 -174.531419 
L 169.015259 -176.136897 
L 166.879826 -177.742374 
L 164.744393 -179.347852 
L 162.608961 -180.95333 
L 160.473528 -182.558808 
L 158.338095 -184.164286 
L 156.202663 -185.769764 
L 154.06723 -187.375242 
L 151.931798 -188.98072 
L 149.796365 -190.586198 
L 147.660932 -192.191676 
L 145.5255 -193.797154 
L 143.390067 -195.402632 
L 141.254634 -197.00811 
L 139.119202 -198.613588 
L 136.983769 -200.219066 
L 134.848336 -201.824544 
L 132.712904 -203.430022 
L 130.577471 -205.0355 
L 128.442038 -206.640978 
L 126.306606 -208.246456 
L 124.171173 -209.851934 
L 122.03574 -211.457412 
L 119.900308 -213.06289 
L 117.764875 -214.668368 
L 115.629442 -216.273846 
L 113.49401 -217.879324 
L 111.358577 -219.484802 
L 109.223145 -221.09028 
L 107.087712 -222.695758 
L 104.952279 -224.301236 
L 102.816847 -225.906713 
L 100.681414 -227.512191 
L 98.545981 -229.117669 
L 96.410549 -230.723147 
L 94.275116 -232.328625 
L 92.139683 -233.934103 
L 90.004251 -235.539581 
L 87.868818 -237.145059 
L 85.733385 -238.750537 
L 83.597953 -240.356015 
L 81.46252 -241.961493 
L 79.327087 -243.566971 
L 77.191655 -245.172449 
L 75.056222 -246.777927 
L 72.920789 -248.383405 
L 288.904338 -248.383405 
L 288.904338 -248.383405 
L 287.37903 -246.777927 
L 285.853723 -245.172449 
L 284.328415 -243.566971 
L 282.803108 -241.961493 
L 281.2778 -240.356015 
L 279.752493 -238.750537 
L 278.227185 -237.145059 
L 276.701878 -235.539581 
L 275.17657 -233.934103 
L 273.651263 -232.328625 
L 272.125955 -230.723147 
L 270.600648 -229.117669 
L 269.07534 -227.512191 
L 267.550033 -225.906713 
L 266.024725 -224.301236 
L 264.499418 -222.695758 
L 262.97411 -221.09028 
L 261.448803 -219.484802 
L 259.923495 -217.879324 
L 258.398188 -216.273846 
L 256.87288 -214.668368 
L 255.347573 -213.06289 
L 253.822265 -211.457412 
L 252.296957 -209.851934 
L 250.77165 -208.246456 
L 249.246342 -206.640978 
L 247.721035 -205.0355 
L 246.195727 -203.430022 
L 244.67042 -201.824544 
L 243.145112 -200.219066 
L 241.619805 -198.613588 
L 240.094497 -197.00811 
L 238.56919 -195.402632 
L 237.043882 -193.797154 
L 235.518575 -192.191676 
L 233.993267 -190.586198 
L 232.46796 -188.98072 
L 230.942652 -187.375242 
L 229.417345 -185.769764 
L 227.892037 -184.164286 
L 226.36673 -182.558808 
L 224.841422 -180.95333 
L 223.316115 -179.347852 
L 221.790807 -177.742374 
L 220.2655 -176.136897 
L 218.740192 -174.531419 
L 217.214885 -172.925941 
L 215.689577 -171.320463 
L 214.16427 -169.714985 
L 212.638962 -168.109507 
L 211.113655 -166.504029 
L 209.588347 -164.898551 
L 208.06304 -163.293073 
L 206.537732 -161.687595 
L 205.012425 -160.082117 
L 203.487117 -158.476639 
L 201.96181 -156.871161 
L 200.436502 -155.265683 
L 198.911195 -153.660205 
z
" style="stroke: #c47b5a; stroke-opacity: 0.16"/>
    </defs>
    <g clip-path="url(#pcfac9baa6a)">
     <use xlink:href="#m1157ec75e9" x="0" y="288.420272" style="fill: #c47b5a; fill-opacity: 0.16; stroke: #c47b5a; stroke-opacity: 0.16"/>
    </g>
   </g>
   <g id="FillBetweenPolyCollection_2">
    <defs>
     <path id="m2fcd97483a" d="M 315.210263 -66.223405 
L 115.840601 -66.223405 
L 117.248577 -67.705385 
L 118.656553 -69.187364 
L 120.06453 -70.669344 
L 121.472506 -72.151324 
L 122.880482 -73.633303 
L 124.288458 -75.115283 
L 125.696434 -76.597263 
L 127.10441 -78.079242 
L 128.512386 -79.561222 
L 129.920363 -81.043202 
L 131.328339 -82.525181 
L 132.736315 -84.007161 
L 134.144291 -85.489141 
L 135.552267 -86.97112 
L 136.960243 -88.4531 
L 138.36822 -89.93508 
L 139.776196 -91.417059 
L 141.184172 -92.899039 
L 142.592148 -94.381019 
L 144.000124 -95.862998 
L 145.4081 -97.344978 
L 146.816077 -98.826958 
L 148.224053 -100.308937 
L 149.632029 -101.790917 
L 151.040005 -103.272897 
L 152.447981 -104.754876 
L 153.855957 -106.236856 
L 155.263934 -107.718836 
L 156.67191 -109.200815 
L 158.079886 -110.682795 
L 159.487862 -112.164774 
L 160.895838 -113.646754 
L 162.303814 -115.128734 
L 163.711791 -116.610713 
L 165.119767 -118.092693 
L 166.527743 -119.574673 
L 167.935719 -121.056652 
L 169.343695 -122.538632 
L 170.751671 -124.020612 
L 172.159648 -125.502591 
L 173.567624 -126.984571 
L 174.9756 -128.466551 
L 176.383576 -129.94853 
L 177.791552 -131.43051 
L 179.199528 -132.91249 
L 180.607505 -134.394469 
L 182.015481 -135.876449 
L 183.423457 -137.358429 
L 184.831433 -138.840408 
L 186.239409 -140.322388 
L 187.647385 -141.804368 
L 189.055362 -143.286347 
L 190.463338 -144.768327 
L 191.871314 -146.250307 
L 193.27929 -147.732286 
L 194.687266 -149.214266 
L 196.095242 -150.696246 
L 197.503218 -152.178225 
L 198.911195 -153.660205 
L 198.911316 -153.660205 
L 198.911316 -153.660205 
L 200.882484 -152.178225 
L 202.853653 -150.696246 
L 204.824822 -149.214266 
L 206.79599 -147.732286 
L 208.767159 -146.250307 
L 210.738327 -144.768327 
L 212.709496 -143.286347 
L 214.680665 -141.804368 
L 216.651833 -140.322388 
L 218.623002 -138.840408 
L 220.59417 -137.358429 
L 222.565339 -135.876449 
L 224.536508 -134.394469 
L 226.507676 -132.91249 
L 228.478845 -131.43051 
L 230.450013 -129.94853 
L 232.421182 -128.466551 
L 234.392351 -126.984571 
L 236.363519 -125.502591 
L 238.334688 -124.020612 
L 240.305856 -122.538632 
L 242.277025 -121.056652 
L 244.248194 -119.574673 
L 246.219362 -118.092693 
L 248.190531 -116.610713 
L 250.161699 -115.128734 
L 252.132868 -113.646754 
L 254.104037 -112.164774 
L 256.075205 -110.682795 
L 258.046374 -109.200815 
L 260.017542 -107.718836 
L 261.988711 -106.236856 
L 263.95988 -104.754876 
L 265.931048 -103.272897 
L 267.902217 -101.790917 
L 269.873385 -100.308937 
L 271.844554 -98.826958 
L 273.815723 -97.344978 
L 275.786891 -95.862998 
L 277.75806 -94.381019 
L 279.729228 -92.899039 
L 281.700397 -91.417059 
L 283.671566 -89.93508 
L 285.642734 -88.4531 
L 287.613903 -86.97112 
L 289.585071 -85.489141 
L 291.55624 -84.007161 
L 293.527409 -82.525181 
L 295.498577 -81.043202 
L 297.469746 -79.561222 
L 299.440914 -78.079242 
L 301.412083 -76.597263 
L 303.383252 -75.115283 
L 305.35442 -73.633303 
L 307.325589 -72.151324 
L 309.296757 -70.669344 
L 311.267926 -69.187364 
L 313.239095 -67.705385 
L 315.210263 -66.223405 
z
" style="stroke: #a85c5c; stroke-opacity: 0.15"/>
    </defs>
    <g clip-path="url(#pcfac9baa6a)">
     <use xlink:href="#m2fcd97483a" x="0" y="288.420272" style="fill: #a85c5c; fill-opacity: 0.15; stroke: #a85c5c; stroke-opacity: 0.15"/>
    </g>
   </g>
   <g id="line2d_1">
    <path d="M 29.308684 134.760067 
L 198.911316 134.760067 
" clip-path="url(#pcfac9baa6a)" style="fill: none; stroke-dasharray: 4.44,1.92; stroke-dashoffset: 0; stroke: #8c8580; stroke-width: 1.2"/>
   </g>
   <g id="line2d_2">
    <path d="M 198.911316 262.272067 
L 198.911316 134.760067 
" clip-path="url(#pcfac9baa6a)" style="fill: none; stroke-dasharray: 4.44,1.92; stroke-dashoffset: 0; stroke: #8c8580; stroke-width: 1.2"/>
   </g>
   <g id="matplotlib.axis_1"/>
   <g id="matplotlib.axis_2"/>
   <g id="patch_3">
    <path d="M 29.308684 262.272067 
L 29.308684 7.248067 
" style="fill: none; stroke: #6b7280; stroke-width: 0.8; stroke-linejoin: miter; stroke-linecap: square"/>
   </g>
   <g id="patch_4">
    <path d="M 29.308684 262.272067 
L 397.588684 262.272067 
" style="fill: none; stroke: #6b7280; stroke-width: 0.8; stroke-linejoin: miter; stroke-linecap: square"/>
   </g>
   <g id="line2d_3">
    <path d="M 315.210263 222.196867 
L 48.691842 21.820867 
" clip-path="url(#pcfac9baa6a)" style="fill: none; stroke: #6b8ba4; stroke-width: 2.8; stroke-linecap: square"/>
   </g>
   <g id="line2d_4">
    <path d="M 115.840601 222.196867 
L 306.210711 21.820867 
" clip-path="url(#pcfac9baa6a)" style="fill: none; stroke: #6a8e6b; stroke-width: 2.8; stroke-linecap: square"/>
   </g>
   <g id="text_1">
    <!-- D -->
    <g style="fill: #6b8ba4" transform="translate(321.2675 226.013664) scale(0.15 -0.15)">
     <defs>
      <path id="Helvetica-44" d="M 2250 531 
Q 2566 531 2769 597 
Q 3131 719 3363 1066 
Q 3547 1344 3628 1778 
Q 3675 2038 3675 2259 
Q 3675 3113 3336 3584 
Q 2997 4056 2244 4056 
L 1141 4056 
L 1141 531 
L 2250 531 
z
M 516 4591 
L 2375 4591 
Q 3322 4591 3844 3919 
Q 4309 3313 4309 2366 
Q 4309 1634 4034 1044 
Q 3550 0 2369 0 
L 516 0 
L 516 4591 
z
" transform="scale(0.015625)"/>
     </defs>
     <use xlink:href="#Helvetica-44"/>
    </g>
   </g>
   <g id="text_2">
    <!-- S -->
    <g style="fill: #6a8e6b" transform="translate(311.056501 25.637664) scale(0.15 -0.15)">
     <defs>
      <path id="Helvetica-53" d="M 894 1481 
Q 916 1091 1078 847 
Q 1388 391 2169 391 
Q 2519 391 2806 491 
Q 3363 684 3363 1184 
Q 3363 1559 3128 1719 
Q 2891 1875 2384 1991 
L 1763 2131 
Q 1153 2269 900 2434 
Q 463 2722 463 3294 
Q 463 3913 891 4309 
Q 1319 4706 2103 4706 
Q 2825 4706 3329 4357 
Q 3834 4009 3834 3244 
L 3250 3244 
Q 3203 3613 3050 3809 
Q 2766 4169 2084 4169 
Q 1534 4169 1293 3937 
Q 1053 3706 1053 3400 
Q 1053 3063 1334 2906 
Q 1519 2806 2169 2656 
L 2813 2509 
Q 3278 2403 3531 2219 
Q 3969 1897 3969 1284 
Q 3969 522 3414 194 
Q 2859 -134 2125 -134 
Q 1269 -134 784 303 
Q 300 738 309 1481 
L 894 1481 
z
M 2150 4716 
L 2150 4716 
z
" transform="scale(0.015625)"/>
     </defs>
     <use xlink:href="#Helvetica-53"/>
    </g>
   </g>
   <g id="text_3">
    <!-- E -->
    <g style="fill: #2d2d2d" transform="translate(207.391447 126.016387) scale(0.14 -0.14)">
     <defs>
      <path id="Helvetica-45" d="M 547 4591 
L 3894 4591 
L 3894 4028 
L 1153 4028 
L 1153 2634 
L 3688 2634 
L 3688 2103 
L 1153 2103 
L 1153 547 
L 3941 547 
L 3941 0 
L 547 0 
L 547 4591 
z
M 2244 4591 
L 2244 4591 
z
" transform="scale(0.015625)"/>
     </defs>
     <use xlink:href="#Helvetica-45"/>
    </g>
   </g>
   <g id="text_4">
    <!-- $P^{*}$ -->
    <g style="fill: #2d2d2d" transform="translate(7.2 138.322411) scale(0.14 -0.14)">
     <defs>
      <path id="DejaVuSans-Oblique-50" d="M 1081 4666 
L 2541 4666 
Q 3178 4666 3512 4369 
Q 3847 4072 3847 3500 
Q 3847 2731 3353 2303 
Q 2859 1875 1966 1875 
L 1172 1875 
L 806 0 
L 172 0 
L 1081 4666 
z
M 1613 4147 
L 1275 2394 
L 2069 2394 
Q 2606 2394 2893 2669 
Q 3181 2944 3181 3456 
Q 3181 3784 2986 3965 
Q 2791 4147 2438 4147 
L 1613 4147 
z
" transform="scale(0.015625)"/>
      <path id="DejaVuSans-2a" d="M 3009 3897 
L 1888 3291 
L 3009 2681 
L 2828 2375 
L 1778 3009 
L 1778 1831 
L 1422 1831 
L 1422 3009 
L 372 2375 
L 191 2681 
L 1313 3291 
L 191 3897 
L 372 4206 
L 1422 3572 
L 1422 4750 
L 1778 4750 
L 1778 3572 
L 2828 4206 
L 3009 3897 
z
" transform="scale(0.015625)"/>
     </defs>
     <use xlink:href="#DejaVuSans-Oblique-50" transform="translate(0 0.765625)"/>
     <use xlink:href="#DejaVuSans-2a" transform="translate(67.319505 39.046875) scale(0.7)"/>
    </g>
   </g>
   <g id="text_5">
    <!-- $Q^{*}$ -->
    <g style="fill: #2d2d2d" transform="translate(190.231316 278.302147) scale(0.14 -0.14)">
     <defs>
      <path id="DejaVuSans-Oblique-51" d="M 2309 -84 
Q 2275 -88 2237 -89 
Q 2200 -91 2125 -91 
Q 1250 -91 756 411 
Q 263 913 263 1797 
Q 263 2319 452 2844 
Q 641 3369 978 3788 
Q 1369 4269 1858 4509 
Q 2347 4750 2938 4750 
Q 3794 4750 4287 4245 
Q 4781 3741 4781 2869 
Q 4781 1928 4265 1147 
Q 3750 366 2919 44 
L 3553 -825 
L 2847 -825 
L 2309 -84 
z
M 2919 4238 
Q 2400 4238 2003 3986 
Q 1606 3734 1313 3219 
Q 1125 2891 1026 2522 
Q 928 2153 928 1778 
Q 928 1128 1239 775 
Q 1550 422 2119 422 
Q 2631 422 3032 676 
Q 3434 931 3719 1434 
Q 3909 1772 4009 2142 
Q 4109 2513 4109 2881 
Q 4109 3528 3796 3883 
Q 3484 4238 2919 4238 
z
" transform="scale(0.015625)"/>
     </defs>
     <use xlink:href="#DejaVuSans-Oblique-51" transform="translate(0 0.765625)"/>
     <use xlink:href="#DejaVuSans-2a" transform="translate(85.911458 39.046875) scale(0.7)"/>
    </g>
   </g>
   <g id="text_6">
    <!-- SURPLUS -->
    <g style="fill: #c47b5a" transform="translate(148.884803 53.881027) scale(0.14 -0.14)">
     <defs>
      <path id="Helvetica-55" d="M 1163 4591 
L 1163 1753 
Q 1163 1253 1350 922 
Q 1628 422 2288 422 
Q 3078 422 3363 963 
Q 3516 1256 3516 1753 
L 3516 4591 
L 4147 4591 
L 4147 2013 
Q 4147 1166 3919 709 
Q 3500 -122 2338 -122 
Q 1175 -122 759 709 
Q 531 1166 531 2013 
L 531 4591 
L 1163 4591 
z
M 2341 4591 
L 2341 4591 
z
" transform="scale(0.015625)"/>
      <path id="Helvetica-52" d="M 2622 2488 
Q 3059 2488 3314 2663 
Q 3569 2838 3569 3294 
Q 3569 3784 3213 3963 
Q 3022 4056 2703 4056 
L 1184 4056 
L 1184 2488 
L 2622 2488 
z
M 563 4591 
L 2688 4591 
Q 3213 4591 3553 4438 
Q 4200 4144 4200 3353 
Q 4200 2941 4029 2678 
Q 3859 2416 3553 2256 
Q 3822 2147 3958 1969 
Q 4094 1791 4109 1391 
L 4131 775 
Q 4141 513 4175 384 
Q 4231 166 4375 103 
L 4375 0 
L 3613 0 
Q 3581 59 3562 153 
Q 3544 247 3531 516 
L 3494 1281 
Q 3472 1731 3159 1884 
Q 2981 1969 2600 1969 
L 1184 1969 
L 1184 0 
L 563 0 
L 563 4591 
z
" transform="scale(0.015625)"/>
      <path id="Helvetica-50" d="M 547 4591 
L 2613 4591 
Q 3225 4591 3600 4245 
Q 3975 3900 3975 3275 
Q 3975 2738 3640 2339 
Q 3306 1941 2613 1941 
L 1169 1941 
L 1169 0 
L 547 0 
L 547 4591 
z
M 3347 3272 
Q 3347 3778 2972 3959 
Q 2766 4056 2406 4056 
L 1169 4056 
L 1169 2466 
L 2406 2466 
Q 2825 2466 3086 2644 
Q 3347 2822 3347 3272 
z
" transform="scale(0.015625)"/>
      <path id="Helvetica-4c" d="M 488 4591 
L 1109 4591 
L 1109 547 
L 3434 547 
L 3434 0 
L 488 0 
L 488 4591 
z
" transform="scale(0.015625)"/>
     </defs>
     <use xlink:href="#Helvetica-53"/>
     <use xlink:href="#Helvetica-55" transform="translate(66.699219 0)"/>
     <use xlink:href="#Helvetica-52" transform="translate(138.916016 0)"/>
     <use xlink:href="#Helvetica-50" transform="translate(211.132812 0)"/>
     <use xlink:href="#Helvetica-4c" transform="translate(277.832031 0)"/>
     <use xlink:href="#Helvetica-55" transform="translate(333.447266 0)"/>
     <use xlink:href="#Helvetica-53" transform="translate(405.664062 0)"/>
    </g>
   </g>
   <g id="text_7">
    <!-- $Q^{s}&gt;Q^{d}\ \Rightarrow$ price falls -->
    <g style="fill: #c47b5a" transform="translate(130.133553 69.911107) scale(0.105 -0.105)">
     <defs>
      <path id="DejaVuSans-Oblique-73" d="M 3200 3397 
L 3091 2853 
Q 2863 2978 2609 3040 
Q 2356 3103 2088 3103 
Q 1634 3103 1373 2948 
Q 1113 2794 1113 2528 
Q 1113 2219 1719 2053 
Q 1766 2041 1788 2034 
L 1972 1978 
Q 2547 1819 2739 1644 
Q 2931 1469 2931 1166 
Q 2931 609 2489 259 
Q 2047 -91 1331 -91 
Q 1053 -91 747 -37 
Q 441 16 72 128 
L 184 722 
Q 500 559 806 475 
Q 1113 391 1394 391 
Q 1816 391 2080 572 
Q 2344 753 2344 1031 
Q 2344 1331 1650 1516 
L 1591 1531 
L 1394 1581 
Q 956 1697 753 1886 
Q 550 2075 550 2369 
Q 550 2928 970 3256 
Q 1391 3584 2113 3584 
Q 2397 3584 2667 3537 
Q 2938 3491 3200 3397 
z
" transform="scale(0.015625)"/>
      <path id="DejaVuSans-3e" d="M 678 3150 
L 678 3719 
L 4684 2266 
L 4684 1747 
L 678 294 
L 678 863 
L 3897 2003 
L 678 3150 
z
" transform="scale(0.015625)"/>
      <path id="DejaVuSans-Oblique-64" d="M 2675 525 
Q 2444 222 2128 65 
Q 1813 -91 1428 -91 
Q 903 -91 598 267 
Q 294 625 294 1247 
Q 294 1766 478 2236 
Q 663 2706 1013 3078 
Q 1244 3325 1534 3454 
Q 1825 3584 2144 3584 
Q 2481 3584 2739 3421 
Q 2997 3259 3138 2956 
L 3513 4863 
L 4091 4863 
L 3144 0 
L 2566 0 
L 2675 525 
z
M 891 1350 
Q 891 897 1095 644 
Q 1300 391 1663 391 
Q 1931 391 2161 520 
Q 2391 650 2566 903 
Q 2750 1166 2856 1509 
Q 2963 1853 2963 2188 
Q 2963 2622 2758 2865 
Q 2553 3109 2194 3109 
Q 1922 3109 1687 2981 
Q 1453 2853 1288 2613 
Q 1106 2353 998 2009 
Q 891 1666 891 1350 
z
" transform="scale(0.015625)"/>
      <path id="DejaVuSans-21d2" d="M 4113 1678 
L 4441 2006 
L 4113 2334 
L 366 2334 
L 366 2709 
L 3738 2709 
L 3447 3000 
L 3822 3375 
L 5050 2147 
L 5050 1866 
L 3822 638 
L 3447 1013 
L 3738 1303 
L 366 1303 
L 366 1678 
L 4113 1678 
z
" transform="scale(0.015625)"/>
      <path id="Helvetica-20" transform="scale(0.015625)"/>
      <path id="Helvetica-70" d="M 1825 378 
Q 2219 378 2480 708 
Q 2741 1038 2741 1694 
Q 2741 2094 2625 2381 
Q 2406 2934 1825 2934 
Q 1241 2934 1025 2350 
Q 909 2038 909 1556 
Q 909 1169 1025 897 
Q 1244 378 1825 378 
z
M 369 3331 
L 916 3331 
L 916 2888 
Q 1084 3116 1284 3241 
Q 1569 3428 1953 3428 
Q 2522 3428 2919 2992 
Q 3316 2556 3316 1747 
Q 3316 653 2744 184 
Q 2381 -113 1900 -113 
Q 1522 -113 1266 53 
Q 1116 147 931 375 
L 931 -1334 
L 369 -1334 
L 369 3331 
z
" transform="scale(0.015625)"/>
      <path id="Helvetica-72" d="M 428 3347 
L 963 3347 
L 963 2769 
Q 1028 2938 1284 3180 
Q 1541 3422 1875 3422 
Q 1891 3422 1928 3419 
Q 1966 3416 2056 3406 
L 2056 2813 
Q 2006 2822 1964 2825 
Q 1922 2828 1872 2828 
Q 1447 2828 1219 2554 
Q 991 2281 991 1925 
L 991 0 
L 428 0 
L 428 3347 
z
" transform="scale(0.015625)"/>
      <path id="Helvetica-69" d="M 413 3331 
L 984 3331 
L 984 0 
L 413 0 
L 413 3331 
z
M 413 4591 
L 984 4591 
L 984 3953 
L 413 3953 
L 413 4591 
z
" transform="scale(0.015625)"/>
      <path id="Helvetica-63" d="M 1703 3444 
Q 2269 3444 2623 3169 
Q 2978 2894 3050 2222 
L 2503 2222 
Q 2453 2531 2275 2736 
Q 2097 2941 1703 2941 
Q 1166 2941 934 2416 
Q 784 2075 784 1575 
Q 784 1072 996 728 
Q 1209 384 1666 384 
Q 2016 384 2220 598 
Q 2425 813 2503 1184 
L 3050 1184 
Q 2956 519 2581 211 
Q 2206 -97 1622 -97 
Q 966 -97 575 383 
Q 184 863 184 1581 
Q 184 2463 612 2953 
Q 1041 3444 1703 3444 
z
M 1616 3428 
L 1616 3428 
z
" transform="scale(0.015625)"/>
      <path id="Helvetica-65" d="M 1806 3422 
Q 2163 3422 2497 3255 
Q 2831 3088 3006 2822 
Q 3175 2569 3231 2231 
Q 3281 2000 3281 1494 
L 828 1494 
Q 844 984 1069 676 
Q 1294 369 1766 369 
Q 2206 369 2469 659 
Q 2619 828 2681 1050 
L 3234 1050 
Q 3213 866 3089 639 
Q 2966 413 2813 269 
Q 2556 19 2178 -69 
Q 1975 -119 1719 -119 
Q 1094 -119 659 336 
Q 225 791 225 1609 
Q 225 2416 662 2919 
Q 1100 3422 1806 3422 
z
M 2703 1941 
Q 2669 2306 2544 2525 
Q 2313 2931 1772 2931 
Q 1384 2931 1121 2651 
Q 859 2372 844 1941 
L 2703 1941 
z
M 1753 3428 
L 1753 3428 
z
" transform="scale(0.015625)"/>
      <path id="Helvetica-66" d="M 553 3856 
Q 566 4206 675 4369 
Q 872 4656 1434 4656 
Q 1488 4656 1544 4653 
Q 1600 4650 1672 4644 
L 1672 4131 
Q 1584 4138 1545 4139 
Q 1506 4141 1472 4141 
Q 1216 4141 1166 4008 
Q 1116 3875 1116 3331 
L 1672 3331 
L 1672 2888 
L 1109 2888 
L 1109 0 
L 553 0 
L 553 2888 
L 88 2888 
L 88 3331 
L 553 3331 
L 553 3856 
z
" transform="scale(0.015625)"/>
      <path id="Helvetica-61" d="M 844 891 
Q 844 647 1022 506 
Q 1200 366 1444 366 
Q 1741 366 2019 503 
Q 2488 731 2488 1250 
L 2488 1703 
Q 2384 1638 2221 1594 
Q 2059 1550 1903 1531 
L 1563 1488 
Q 1256 1447 1103 1359 
Q 844 1213 844 891 
z
M 2206 2028 
Q 2400 2053 2466 2191 
Q 2503 2266 2503 2406 
Q 2503 2694 2298 2823 
Q 2094 2953 1713 2953 
Q 1272 2953 1088 2716 
Q 984 2584 953 2325 
L 428 2325 
Q 444 2944 830 3186 
Q 1216 3428 1725 3428 
Q 2316 3428 2684 3203 
Q 3050 2978 3050 2503 
L 3050 575 
Q 3050 488 3086 434 
Q 3122 381 3238 381 
Q 3275 381 3322 386 
Q 3369 391 3422 400 
L 3422 -16 
Q 3291 -53 3222 -62 
Q 3153 -72 3034 -72 
Q 2744 -72 2613 134 
Q 2544 244 2516 444 
Q 2344 219 2022 53 
Q 1700 -113 1313 -113 
Q 847 -113 551 170 
Q 256 453 256 878 
Q 256 1344 547 1600 
Q 838 1856 1309 1916 
L 2206 2028 
z
M 1741 3428 
L 1741 3428 
z
" transform="scale(0.015625)"/>
      <path id="Helvetica-6c" d="M 428 4591 
L 991 4591 
L 991 0 
L 428 0 
L 428 4591 
z
" transform="scale(0.015625)"/>
      <path id="Helvetica-73" d="M 747 1050 
Q 772 769 888 619 
Q 1100 347 1625 347 
Q 1938 347 2175 483 
Q 2413 619 2413 903 
Q 2413 1119 2222 1231 
Q 2100 1300 1741 1391 
L 1294 1503 
Q 866 1609 663 1741 
Q 300 1969 300 2372 
Q 300 2847 642 3140 
Q 984 3434 1563 3434 
Q 2319 3434 2653 2991 
Q 2863 2709 2856 2384 
L 2325 2384 
Q 2309 2575 2191 2731 
Q 1997 2953 1519 2953 
Q 1200 2953 1036 2831 
Q 872 2709 872 2509 
Q 872 2291 1088 2159 
Q 1213 2081 1456 2022 
L 1828 1931 
Q 2434 1784 2641 1647 
Q 2969 1431 2969 969 
Q 2969 522 2630 197 
Q 2291 -128 1597 -128 
Q 850 -128 539 211 
Q 228 550 206 1050 
L 747 1050 
z
M 1578 3428 
L 1578 3428 
z
" transform="scale(0.015625)"/>
     </defs>
     <use xlink:href="#DejaVuSans-Oblique-51" transform="translate(0 0.529687)"/>
     <use xlink:href="#DejaVuSans-Oblique-73" transform="translate(85.911458 38.810937) scale(0.7)"/>
     <use xlink:href="#DejaVuSans-3e" transform="translate(144.597982 0.529687)"/>
     <use xlink:href="#DejaVuSans-Oblique-51" transform="translate(247.869466 0.529687)"/>
     <use xlink:href="#DejaVuSans-Oblique-64" transform="translate(333.780924 38.810937) scale(0.7)"/>
     <use xlink:href="#DejaVuSans-21d2" transform="translate(432.901694 0.529687)"/>
     <use xlink:href="#Helvetica-20" transform="translate(536.173178 0.529687)"/>
     <use xlink:href="#Helvetica-70" transform="translate(563.956381 0.529687)"/>
     <use xlink:href="#Helvetica-72" transform="translate(619.571615 0.529687)"/>
     <use xlink:href="#Helvetica-69" transform="translate(652.872397 0.529687)"/>
     <use xlink:href="#Helvetica-63" transform="translate(675.089194 0.529687)"/>
     <use xlink:href="#Helvetica-65" transform="translate(725.089194 0.529687)"/>
     <use xlink:href="#Helvetica-20" transform="translate(780.704428 0.529687)"/>
     <use xlink:href="#Helvetica-66" transform="translate(808.487631 0.529687)"/>
     <use xlink:href="#Helvetica-61" transform="translate(836.270834 0.529687)"/>
     <use xlink:href="#Helvetica-6c" transform="translate(891.886069 0.529687)"/>
     <use xlink:href="#Helvetica-6c" transform="translate(914.102865 0.529687)"/>
     <use xlink:href="#Helvetica-73" transform="translate(936.319662 0.529687)"/>
    </g>
   </g>
   <g id="text_8">
    <!-- SHORTAGE -->
    <g style="fill: #a85c5c" transform="translate(169.31977 189.408067) scale(0.14 -0.14)">
     <defs>
      <path id="Helvetica-48" d="M 503 4591 
L 1131 4591 
L 1131 2694 
L 3519 2694 
L 3519 4591 
L 4147 4591 
L 4147 0 
L 3519 0 
L 3519 2147 
L 1131 2147 
L 1131 0 
L 503 0 
L 503 4591 
z
" transform="scale(0.015625)"/>
      <path id="Helvetica-4f" d="M 2469 4716 
Q 3684 4716 4269 3934 
Q 4725 3325 4725 2375 
Q 4725 1347 4203 666 
Q 3591 -134 2456 -134 
Q 1397 -134 791 566 
Q 250 1241 250 2272 
Q 250 3203 713 3866 
Q 1306 4716 2469 4716 
z
M 2531 422 
Q 3353 422 3720 1011 
Q 4088 1600 4088 2366 
Q 4088 3175 3664 3669 
Q 3241 4163 2506 4163 
Q 1794 4163 1344 3673 
Q 894 3184 894 2231 
Q 894 1469 1280 945 
Q 1666 422 2531 422 
z
M 2488 4716 
L 2488 4716 
z
" transform="scale(0.015625)"/>
      <path id="Helvetica-54" d="M 3828 4591 
L 3828 4044 
L 2281 4044 
L 2281 0 
L 1650 0 
L 1650 4044 
L 103 4044 
L 103 4591 
L 3828 4591 
z
" transform="scale(0.015625)"/>
      <path id="Helvetica-41" d="M 2844 1881 
L 2147 3909 
L 1406 1881 
L 2844 1881 
z
M 1822 4591 
L 2525 4591 
L 4191 0 
L 3509 0 
L 3044 1375 
L 1228 1375 
L 731 0 
L 94 0 
L 1822 4591 
z
" transform="scale(0.015625)"/>
      <path id="Helvetica-47" d="M 2472 4709 
Q 3119 4709 3591 4459 
Q 4275 4100 4428 3200 
L 3813 3200 
Q 3700 3703 3347 3933 
Q 2994 4163 2456 4163 
Q 1819 4163 1383 3684 
Q 947 3206 947 2259 
Q 947 1441 1306 927 
Q 1666 413 2478 413 
Q 3100 413 3508 773 
Q 3916 1134 3925 1941 
L 2488 1941 
L 2488 2456 
L 4503 2456 
L 4503 0 
L 4103 0 
L 3953 591 
Q 3638 244 3394 109 
Q 2984 -122 2353 -122 
Q 1538 -122 950 406 
Q 309 1069 309 2225 
Q 309 3378 934 4059 
Q 1528 4709 2472 4709 
z
M 2369 4716 
L 2369 4716 
z
" transform="scale(0.015625)"/>
     </defs>
     <use xlink:href="#Helvetica-53"/>
     <use xlink:href="#Helvetica-48" transform="translate(66.699219 0)"/>
     <use xlink:href="#Helvetica-4f" transform="translate(138.916016 0)"/>
     <use xlink:href="#Helvetica-52" transform="translate(216.699219 0)"/>
     <use xlink:href="#Helvetica-54" transform="translate(288.916016 0)"/>
     <use xlink:href="#Helvetica-41" transform="translate(350 0)"/>
     <use xlink:href="#Helvetica-47" transform="translate(416.699219 0)"/>
     <use xlink:href="#Helvetica-45" transform="translate(494.482422 0)"/>
    </g>
   </g>
   <g id="text_9">
    <!-- $Q^{d}&gt;Q^{s}\ \Rightarrow$ price rises -->
    <g style="fill: #a85c5c" transform="translate(155.052895 206.895427) scale(0.105 -0.105)">
     <use xlink:href="#DejaVuSans-Oblique-51" transform="translate(0 0.529687)"/>
     <use xlink:href="#DejaVuSans-Oblique-64" transform="translate(85.911458 38.810937) scale(0.7)"/>
     <use xlink:href="#DejaVuSans-3e" transform="translate(152.561849 0.529687)"/>
     <use xlink:href="#DejaVuSans-Oblique-51" transform="translate(255.833333 0.529687)"/>
     <use xlink:href="#DejaVuSans-Oblique-73" transform="translate(341.744792 38.810937) scale(0.7)"/>
     <use xlink:href="#DejaVuSans-21d2" transform="translate(432.901694 0.529687)"/>
     <use xlink:href="#Helvetica-20" transform="translate(536.173178 0.529687)"/>
     <use xlink:href="#Helvetica-70" transform="translate(563.956381 0.529687)"/>
     <use xlink:href="#Helvetica-72" transform="translate(619.571615 0.529687)"/>
     <use xlink:href="#Helvetica-69" transform="translate(652.872397 0.529687)"/>
     <use xlink:href="#Helvetica-63" transform="translate(675.089194 0.529687)"/>
     <use xlink:href="#Helvetica-65" transform="translate(725.089194 0.529687)"/>
     <use xlink:href="#Helvetica-20" transform="translate(780.704428 0.529687)"/>
     <use xlink:href="#Helvetica-72" transform="translate(808.487631 0.529687)"/>
     <use xlink:href="#Helvetica-69" transform="translate(841.788412 0.529687)"/>
     <use xlink:href="#Helvetica-73" transform="translate(864.005209 0.529687)"/>
     <use xlink:href="#Helvetica-65" transform="translate(914.005209 0.529687)"/>
     <use xlink:href="#Helvetica-73" transform="translate(969.620444 0.529687)"/>
    </g>
   </g>
   <g id="text_10">
    <!-- Price ($/lb) -->
    <g style="fill: #374151" transform="translate(35.365921 16.453125) scale(0.12 -0.12)">
     <defs>
      <path id="Helvetica-28" d="M 1894 4666 
Q 1403 3713 1256 3263 
Q 1034 2578 1034 1681 
Q 1034 775 1288 25 
Q 1444 -438 1903 -1306 
L 1525 -1306 
Q 1069 -594 959 -397 
Q 850 -200 722 138 
Q 547 600 478 1125 
Q 444 1397 444 1644 
Q 444 2569 734 3291 
Q 919 3750 1503 4666 
L 1894 4666 
z
" transform="scale(0.015625)"/>
      <path id="Helvetica-24" d="M 1909 325 
Q 2444 350 2647 716 
Q 2753 903 2753 1150 
Q 2753 1541 2466 1744 
Q 2300 1863 1909 1969 
L 1909 325 
z
M 850 3341 
Q 850 3031 1054 2856 
Q 1259 2681 1606 2613 
L 1606 4081 
Q 1197 4066 1023 3831 
Q 850 3597 850 3341 
z
M 288 3303 
Q 288 3778 636 4159 
Q 984 4541 1613 4547 
L 1613 4963 
L 1909 4963 
L 1909 4553 
Q 2531 4509 2864 4186 
Q 3197 3863 3213 3331 
L 2666 3331 
Q 2644 3569 2538 3741 
Q 2341 4056 1909 4072 
L 1909 2553 
Q 2634 2350 2894 2172 
Q 3316 1878 3316 1303 
Q 3316 472 2775 122 
Q 2475 -72 1909 -134 
L 1909 -741 
L 1613 -741 
L 1613 -134 
Q 703 -75 378 509 
Q 200 825 200 1363 
L 753 1363 
Q 778 934 888 738 
Q 1081 384 1606 341 
L 1606 2044 
Q 931 2172 609 2472 
Q 288 2772 288 3303 
z
" transform="scale(0.015625)"/>
      <path id="Helvetica-2f" d="M 1456 4591 
L 1931 4591 
L 475 0 
L 0 0 
L 1456 4591 
z
" transform="scale(0.015625)"/>
      <path id="Helvetica-62" d="M 369 4606 
L 916 4606 
L 916 2941 
Q 1100 3181 1356 3307 
Q 1613 3434 1913 3434 
Q 2538 3434 2927 3004 
Q 3316 2575 3316 1738 
Q 3316 944 2931 419 
Q 2547 -106 1866 -106 
Q 1484 -106 1222 78 
Q 1066 188 888 428 
L 888 0 
L 369 0 
L 369 4606 
z
M 1831 391 
Q 2288 391 2514 753 
Q 2741 1116 2741 1709 
Q 2741 2238 2514 2584 
Q 2288 2931 1847 2931 
Q 1463 2931 1173 2647 
Q 884 2363 884 1709 
Q 884 1238 1003 944 
Q 1225 391 1831 391 
z
" transform="scale(0.015625)"/>
      <path id="Helvetica-29" d="M 222 -1306 
Q 719 -338 863 106 
Q 1081 778 1081 1681 
Q 1081 2584 828 3334 
Q 672 3797 213 4666 
L 591 4666 
Q 1072 3897 1173 3717 
Q 1275 3538 1394 3222 
Q 1544 2831 1608 2450 
Q 1672 2069 1672 1716 
Q 1672 791 1378 66 
Q 1194 -400 613 -1306 
L 222 -1306 
z
" transform="scale(0.015625)"/>
     </defs>
     <use xlink:href="#Helvetica-50"/>
     <use xlink:href="#Helvetica-72" transform="translate(66.699219 0)"/>
     <use xlink:href="#Helvetica-69" transform="translate(100 0)"/>
     <use xlink:href="#Helvetica-63" transform="translate(122.216797 0)"/>
     <use xlink:href="#Helvetica-65" transform="translate(172.216797 0)"/>
     <use xlink:href="#Helvetica-20" transform="translate(227.832031 0)"/>
     <use xlink:href="#Helvetica-28" transform="translate(255.615234 0)"/>
     <use xlink:href="#Helvetica-24" transform="translate(288.916016 0)"/>
     <use xlink:href="#Helvetica-2f" transform="translate(344.53125 0)"/>
     <use xlink:href="#Helvetica-6c" transform="translate(372.314453 0)"/>
     <use xlink:href="#Helvetica-62" transform="translate(394.53125 0)"/>
     <use xlink:href="#Helvetica-29" transform="translate(450.146484 0)"/>
    </g>
   </g>
   <g id="text_11">
    <!-- Quantity (lbs/day) -->
    <g style="fill: #374151" transform="translate(298.711645 255.934747) scale(0.12 -0.12)">
     <defs>
      <path id="Helvetica-51" d="M 4688 13 
L 4375 -366 
L 3666 175 
Q 3409 34 3111 -50 
Q 2813 -134 2459 -134 
Q 1391 -134 784 566 
Q 250 1247 250 2272 
Q 250 3203 713 3866 
Q 1306 4716 2469 4716 
Q 3684 4716 4269 3934 
Q 4725 3325 4725 2375 
Q 4725 1931 4616 1522 
Q 4450 897 4056 503 
L 4688 13 
z
M 2534 422 
Q 2728 422 2897 448 
Q 3066 475 3191 553 
L 2688 947 
L 3000 1331 
L 3600 866 
Q 3884 1191 3986 1594 
Q 4088 1997 4088 2366 
Q 4088 3175 3664 3669 
Q 3241 4163 2506 4163 
Q 1763 4163 1328 3689 
Q 894 3216 894 2231 
Q 894 1403 1311 912 
Q 1728 422 2534 422 
z
" transform="scale(0.015625)"/>
      <path id="Helvetica-75" d="M 975 3347 
L 975 1125 
Q 975 869 1056 706 
Q 1206 406 1616 406 
Q 2203 406 2416 931 
Q 2531 1213 2531 1703 
L 2531 3347 
L 3094 3347 
L 3094 0 
L 2563 0 
L 2569 494 
Q 2459 303 2297 172 
Q 1975 -91 1516 -91 
Q 800 -91 541 388 
Q 400 644 400 1072 
L 400 3347 
L 975 3347 
z
M 1747 3428 
L 1747 3428 
z
" transform="scale(0.015625)"/>
      <path id="Helvetica-6e" d="M 413 3347 
L 947 3347 
L 947 2872 
Q 1184 3166 1450 3294 
Q 1716 3422 2041 3422 
Q 2753 3422 3003 2925 
Q 3141 2653 3141 2147 
L 3141 0 
L 2569 0 
L 2569 2109 
Q 2569 2416 2478 2603 
Q 2328 2916 1934 2916 
Q 1734 2916 1606 2875 
Q 1375 2806 1200 2600 
Q 1059 2434 1017 2257 
Q 975 2081 975 1753 
L 975 0 
L 413 0 
L 413 3347 
z
M 1734 3428 
L 1734 3428 
z
" transform="scale(0.015625)"/>
      <path id="Helvetica-74" d="M 525 4281 
L 1094 4281 
L 1094 3347 
L 1628 3347 
L 1628 2888 
L 1094 2888 
L 1094 703 
Q 1094 528 1213 469 
Q 1278 434 1431 434 
Q 1472 434 1519 436 
Q 1566 438 1628 444 
L 1628 0 
Q 1531 -28 1426 -40 
Q 1322 -53 1200 -53 
Q 806 -53 665 148 
Q 525 350 525 672 
L 525 2888 
L 72 2888 
L 72 3347 
L 525 3347 
L 525 4281 
z
" transform="scale(0.015625)"/>
      <path id="Helvetica-79" d="M 2503 3347 
L 3125 3347 
Q 3006 3025 2597 1878 
Q 2291 1016 2084 472 
Q 1597 -809 1397 -1090 
Q 1197 -1372 709 -1372 
Q 591 -1372 527 -1362 
Q 463 -1353 369 -1328 
L 369 -816 
Q 516 -856 581 -865 
Q 647 -875 697 -875 
Q 853 -875 926 -823 
Q 1000 -772 1050 -697 
Q 1066 -672 1162 -440 
Q 1259 -209 1303 -97 
L 66 3347 
L 703 3347 
L 1600 622 
L 2503 3347 
z
M 1597 3428 
L 1597 3428 
z
" transform="scale(0.015625)"/>
      <path id="Helvetica-64" d="M 769 1634 
Q 769 1097 997 734 
Q 1225 372 1728 372 
Q 2119 372 2370 708 
Q 2622 1044 2622 1672 
Q 2622 2306 2362 2611 
Q 2103 2916 1722 2916 
Q 1297 2916 1033 2591 
Q 769 2266 769 1634 
z
M 1616 3406 
Q 2000 3406 2259 3244 
Q 2409 3150 2600 2916 
L 2600 4606 
L 3141 4606 
L 3141 0 
L 2634 0 
L 2634 466 
Q 2438 156 2169 18 
Q 1900 -119 1553 -119 
Q 994 -119 584 351 
Q 175 822 175 1603 
Q 175 2334 548 2870 
Q 922 3406 1616 3406 
z
" transform="scale(0.015625)"/>
     </defs>
     <use xlink:href="#Helvetica-51"/>
     <use xlink:href="#Helvetica-75" transform="translate(77.783203 0)"/>
     <use xlink:href="#Helvetica-61" transform="translate(133.398438 0)"/>
     <use xlink:href="#Helvetica-6e" transform="translate(189.013672 0)"/>
     <use xlink:href="#Helvetica-74" transform="translate(244.628906 0)"/>
     <use xlink:href="#Helvetica-69" transform="translate(272.412109 0)"/>
     <use xlink:href="#Helvetica-74" transform="translate(294.628906 0)"/>
     <use xlink:href="#Helvetica-79" transform="translate(322.412109 0)"/>
     <use xlink:href="#Helvetica-20" transform="translate(372.412109 0)"/>
     <use xlink:href="#Helvetica-28" transform="translate(400.195312 0)"/>
     <use xlink:href="#Helvetica-6c" transform="translate(433.496094 0)"/>
     <use xlink:href="#Helvetica-62" transform="translate(455.712891 0)"/>
     <use xlink:href="#Helvetica-73" transform="translate(511.328125 0)"/>
     <use xlink:href="#Helvetica-2f" transform="translate(561.328125 0)"/>
     <use xlink:href="#Helvetica-64" transform="translate(589.111328 0)"/>
     <use xlink:href="#Helvetica-61" transform="translate(644.726562 0)"/>
     <use xlink:href="#Helvetica-79" transform="translate(700.341797 0)"/>
     <use xlink:href="#Helvetica-29" transform="translate(750.341797 0)"/>
    </g>
   </g>
   <g id="PathCollection_1">
    <defs>
     <path id="mea3ce4fffa" d="M 0 4.873397 
C 1.29244 4.873397 2.532119 4.359905 3.446012 3.446012 
C 4.359905 2.532119 4.873397 1.29244 4.873397 0 
C 4.873397 -1.29244 4.359905 -2.532119 3.446012 -3.446012 
C 2.532119 -4.359905 1.29244 -4.873397 0 -4.873397 
C -1.29244 -4.873397 -2.532119 -4.359905 -3.446012 -3.446012 
C -4.359905 -2.532119 -4.873397 -1.29244 -4.873397 0 
C -4.873397 1.29244 -4.359905 2.532119 -3.446012 3.446012 
C -2.532119 4.359905 -1.29244 4.873397 0 4.873397 
z
" style="stroke: #2d2d2d"/>
    </defs>
    <g clip-path="url(#pcfac9baa6a)">
     <use xlink:href="#mea3ce4fffa" x="198.911316" y="134.760067" style="fill: #2d2d2d; stroke: #2d2d2d"/>
    </g>
   </g>
  </g>
 </g>
 <defs>
  <clipPath id="pcfac9baa6a">
   <rect x="29.308684" y="7.248067" width="368.28" height="255.024"/>
  </clipPath>
 </defs>
</svg>
